<?xml version="1.0" encoding="UTF-8"?><svg xmlns="http://www.w3.org/2000/svg" xmlns:xlink="http://www.w3.org/1999/xlink" stroke-dasharray="none" shape-rendering="auto" font-family="'Dialog'" width="558" text-rendering="auto" fill-opacity="1" contentScriptType="text/ecmascript" color-interpolation="auto" color-rendering="auto" preserveAspectRatio="xMidYMid meet" font-size="12" viewBox="0 0 558 254" fill="black" stroke="black" image-rendering="auto" stroke-miterlimit="10" zoomAndPan="magnify" version="1.0" stroke-linecap="square" stroke-linejoin="miter" contentStyleType="text/css" font-style="normal" height="254" stroke-width="1" stroke-dashoffset="0" font-weight="normal" stroke-opacity="1">
    <!--Generated by the Batik Graphics2D SVG Generator-->
    <defs id="genericDefs"/>
    <g>
        <defs id="defs1">
            <linearGradient x1="10" x2="10" y1="23" gradientUnits="userSpaceOnUse" y2="104" xlink:type="simple" xlink:actuate="onLoad" id="linearGradient1" xlink:show="other" spreadMethod="pad">
                <stop stop-opacity="1" stop-color="white" offset="0%"/>
                <stop stop-opacity="1" stop-color="white" offset="100%"/>
            </linearGradient>
            <linearGradient x1="290" x2="290" y1="23" gradientUnits="userSpaceOnUse" y2="64" xlink:type="simple" xlink:actuate="onLoad" id="linearGradient2" xlink:show="other" spreadMethod="pad">
                <stop stop-opacity="1" stop-color="white" offset="0%"/>
                <stop stop-opacity="1" stop-color="white" offset="100%"/>
            </linearGradient>
            <linearGradient x1="110" x2="110" y1="123" gradientUnits="userSpaceOnUse" y2="164" xlink:type="simple" xlink:actuate="onLoad" id="linearGradient3" xlink:show="other" spreadMethod="pad">
                <stop stop-opacity="1" stop-color="white" offset="0%"/>
                <stop stop-opacity="1" stop-color="white" offset="100%"/>
            </linearGradient>
            <linearGradient x1="10" x2="10" y1="203" gradientUnits="userSpaceOnUse" y2="244" xlink:type="simple" xlink:actuate="onLoad" id="linearGradient4" xlink:show="other" spreadMethod="pad">
                <stop stop-opacity="1" stop-color="white" offset="0%"/>
                <stop stop-opacity="1" stop-color="white" offset="100%"/>
            </linearGradient>
            <linearGradient x1="190" x2="190" y1="203" gradientUnits="userSpaceOnUse" y2="244" xlink:type="simple" xlink:actuate="onLoad" id="linearGradient5" xlink:show="other" spreadMethod="pad">
                <stop stop-opacity="1" stop-color="white" offset="0%"/>
                <stop stop-opacity="1" stop-color="white" offset="100%"/>
            </linearGradient>
            <linearGradient x1="330" x2="330" y1="123" gradientUnits="userSpaceOnUse" y2="164" xlink:type="simple" xlink:actuate="onLoad" id="linearGradient6" xlink:show="other" spreadMethod="pad">
                <stop stop-opacity="1" stop-color="white" offset="0%"/>
                <stop stop-opacity="1" stop-color="white" offset="100%"/>
            </linearGradient>
            <clipPath clipPathUnits="userSpaceOnUse" id="clipPath1">
                <path d="M10 23 L10 103 L166 103 L166 23 Z"/>
            </clipPath>
            <clipPath clipPathUnits="userSpaceOnUse" id="clipPath2">
                <path d="M67 25 L111 25 L111 42 L67 42 L67 25 Z"/>
            </clipPath>
            <clipPath clipPathUnits="userSpaceOnUse" id="clipPath3">
                <path d="M15 43 L123 43 L123 60 L15 60 L15 43 Z"/>
            </clipPath>
            <clipPath clipPathUnits="userSpaceOnUse" id="clipPath4">
                <path d="M10 41 L168 41 L168 67 L10 67 L10 41 Z"/>
            </clipPath>
            <clipPath clipPathUnits="userSpaceOnUse" id="clipPath5">
                <path d="M15 68 L164 68 L164 85 L15 85 L15 68 Z"/>
            </clipPath>
            <clipPath clipPathUnits="userSpaceOnUse" id="clipPath6">
                <path d="M15 83 L78 83 L78 100 L15 100 L15 83 Z"/>
            </clipPath>
            <clipPath clipPathUnits="userSpaceOnUse" id="clipPath7">
                <path d="M10 66 L168 66 L168 104 L10 104 L10 66 Z"/>
            </clipPath>
            <clipPath clipPathUnits="userSpaceOnUse" id="clipPath8">
                <path d="M9 22 L168 22 L168 105 L9 105 L9 22 Z"/>
            </clipPath>
            <clipPath clipPathUnits="userSpaceOnUse" id="clipPath9">
                <path d="M290 23 L290 63 L546 63 L546 23 Z"/>
            </clipPath>
            <clipPath clipPathUnits="userSpaceOnUse" id="clipPath10">
                <path d="M396 25 L443 25 L443 42 L396 42 L396 25 Z"/>
            </clipPath>
            <clipPath clipPathUnits="userSpaceOnUse" id="clipPath11">
                <path d="M295 43 L544 43 L544 60 L295 60 L295 43 Z"/>
            </clipPath>
            <clipPath clipPathUnits="userSpaceOnUse" id="clipPath12">
                <path d="M290 41 L548 41 L548 65 L290 65 L290 41 Z"/>
            </clipPath>
            <clipPath clipPathUnits="userSpaceOnUse" id="clipPath13">
                <path d="M289 22 L548 22 L548 65 L289 65 L289 22 Z"/>
            </clipPath>
            <clipPath clipPathUnits="userSpaceOnUse" id="clipPath14">
                <path d="M110 123 L110 163 L217 163 L217 123 Z"/>
            </clipPath>
            <clipPath clipPathUnits="userSpaceOnUse" id="clipPath15">
                <path d="M150 125 L180 125 L180 142 L150 142 L150 125 Z"/>
            </clipPath>
            <clipPath clipPathUnits="userSpaceOnUse" id="clipPath16">
                <path d="M115 143 L215 143 L215 160 L115 160 L115 143 Z"/>
            </clipPath>
            <clipPath clipPathUnits="userSpaceOnUse" id="clipPath17">
                <path d="M110 141 L219 141 L219 165 L110 165 L110 141 Z"/>
            </clipPath>
            <clipPath clipPathUnits="userSpaceOnUse" id="clipPath18">
                <path d="M109 122 L219 122 L219 165 L109 165 L109 122 Z"/>
            </clipPath>
            <clipPath clipPathUnits="userSpaceOnUse" id="clipPath19">
                <path d="M10 203 L10 243 L120 243 L120 203 Z"/>
            </clipPath>
            <clipPath clipPathUnits="userSpaceOnUse" id="clipPath20">
                <path d="M53 205 L80 205 L80 222 L53 222 L53 205 Z"/>
            </clipPath>
            <clipPath clipPathUnits="userSpaceOnUse" id="clipPath21">
                <path d="M15 223 L118 223 L118 240 L15 240 L15 223 Z"/>
            </clipPath>
            <clipPath clipPathUnits="userSpaceOnUse" id="clipPath22">
                <path d="M10 221 L122 221 L122 245 L10 245 L10 221 Z"/>
            </clipPath>
            <clipPath clipPathUnits="userSpaceOnUse" id="clipPath23">
                <path d="M9 202 L122 202 L122 245 L9 245 L9 202 Z"/>
            </clipPath>
            <clipPath clipPathUnits="userSpaceOnUse" id="clipPath24">
                <path d="M190 203 L190 243 L328 243 L328 203 Z"/>
            </clipPath>
            <clipPath clipPathUnits="userSpaceOnUse" id="clipPath25">
                <path d="M247 205 L274 205 L274 222 L247 222 L247 205 Z"/>
            </clipPath>
            <clipPath clipPathUnits="userSpaceOnUse" id="clipPath26">
                <path d="M195 223 L326 223 L326 240 L195 240 L195 223 Z"/>
            </clipPath>
            <clipPath clipPathUnits="userSpaceOnUse" id="clipPath27">
                <path d="M190 221 L330 221 L330 245 L190 245 L190 221 Z"/>
            </clipPath>
            <clipPath clipPathUnits="userSpaceOnUse" id="clipPath28">
                <path d="M189 202 L330 202 L330 245 L189 245 L189 202 Z"/>
            </clipPath>
            <clipPath clipPathUnits="userSpaceOnUse" id="clipPath29">
                <path d="M330 123 L330 163 L429 163 L429 123 Z"/>
            </clipPath>
            <clipPath clipPathUnits="userSpaceOnUse" id="clipPath30">
                <path d="M363 135 L399 135 L399 152 L363 152 L363 135 Z"/>
            </clipPath>
            <clipPath clipPathUnits="userSpaceOnUse" id="clipPath31">
                <path d="M329 122 L431 122 L431 165 L329 165 L329 122 Z"/>
            </clipPath>
            <clipPath clipPathUnits="userSpaceOnUse" id="clipPath32">
                <path d="M-1 -1 L559 -1 L559 255 L-1 255 L-1 -1 Z"/>
            </clipPath>
            <clipPath clipPathUnits="userSpaceOnUse" id="clipPath33">
                <path d="M161 163 L180 163 L180 176 L161 176 L161 163 Z"/>
            </clipPath>
            <clipPath clipPathUnits="userSpaceOnUse" id="clipPath34">
                <path d="M274 147 L323 147 L323 164 L274 164 L274 147 Z"/>
            </clipPath>
            <clipPath clipPathUnits="userSpaceOnUse" id="clipPath35">
                <path d="M229 122 L275 122 L275 139 L229 139 L229 122 Z"/>
            </clipPath>
            <clipPath clipPathUnits="userSpaceOnUse" id="clipPath36">
                <path d="M309 122 L321 122 L321 139 L309 139 L309 122 Z"/>
            </clipPath>
            <clipPath clipPathUnits="userSpaceOnUse" id="clipPath37">
                <path d="M229 152 L240 152 L240 169 L229 169 L229 152 Z"/>
            </clipPath>
            <clipPath clipPathUnits="userSpaceOnUse" id="clipPath38">
                <path d="M313 138 L332 138 L332 149 L313 149 L313 138 Z"/>
            </clipPath>
            <clipPath clipPathUnits="userSpaceOnUse" id="clipPath39">
                <path d="M217 136 L238 136 L238 151 L217 151 L217 136 Z"/>
            </clipPath>
            <clipPath clipPathUnits="userSpaceOnUse" id="clipPath40">
                <path d="M174 22 L234 22 L234 39 L174 39 L174 22 Z"/>
            </clipPath>
            <clipPath clipPathUnits="userSpaceOnUse" id="clipPath41">
                <path d="M209 42 L269 42 L269 59 L209 59 L209 42 Z"/>
            </clipPath>
            <clipPath clipPathUnits="userSpaceOnUse" id="clipPath42">
                <path d="M174 47 L185 47 L185 64 L174 64 L174 47 Z"/>
            </clipPath>
            <clipPath clipPathUnits="userSpaceOnUse" id="clipPath43">
                <path d="M249 22 L273 22 L273 39 L249 39 L249 22 Z"/>
            </clipPath>
            <clipPath clipPathUnits="userSpaceOnUse" id="clipPath44">
                <path d="M271 36 L292 36 L292 51 L271 51 L271 36 Z"/>
            </clipPath>
            <clipPath clipPathUnits="userSpaceOnUse" id="clipPath45">
                <path d="M454 67 L514 67 L514 84 L454 84 L454 67 Z"/>
            </clipPath>
            <clipPath clipPathUnits="userSpaceOnUse" id="clipPath46">
                <path d="M444 122 L493 122 L493 139 L444 139 L444 122 Z"/>
            </clipPath>
            <clipPath clipPathUnits="userSpaceOnUse" id="clipPath47">
                <path d="M524 67 L536 67 L536 84 L524 84 L524 67 Z"/>
            </clipPath>
            <clipPath clipPathUnits="userSpaceOnUse" id="clipPath48">
                <path d="M449 147 L479 147 L479 164 L449 164 L449 147 Z"/>
            </clipPath>
            <clipPath clipPathUnits="userSpaceOnUse" id="clipPath49">
                <path d="M429 136 L450 136 L450 151 L429 151 L429 136 Z"/>
            </clipPath>
        </defs>
        <g fill="url(#linearGradient1)" font-family="'Segoe UI'" stroke-linejoin="round" stroke="url(#linearGradient1)" stroke-width="0" stroke-miterlimit="0">
            <rect x="10" y="23" clip-path="url(#clipPath1)" width="157" height="81" stroke="none"/>
            <text x="68" y="39" clip-path="url(#clipPath2)" fill="black" stroke="none" xml:space="preserve">Remote</text>
            <text x="16" y="57" clip-path="url(#clipPath3)" fill="black" stroke="none" xml:space="preserve"> + group: Integer [1]</text>
        </g>
        <g stroke-width="1.1" font-family="'Segoe UI'" stroke-linecap="butt">
            <line clip-path="url(#clipPath4)" fill="none" x1="10" x2="167" y1="42" y2="42"/>
            <text xml:space="preserve" x="16" y="82" clip-path="url(#clipPath5)" stroke="none"> + turnOn(  in mode: String)</text>
            <text xml:space="preserve" x="16" y="97" clip-path="url(#clipPath6)" stroke="none"> + turnOff()</text>
            <line clip-path="url(#clipPath7)" fill="none" x1="10" x2="167" y1="67" y2="67"/>
            <rect x="10" y="23" clip-path="url(#clipPath8)" fill="none" width="156" rx="0" ry="0" height="80"/>
            <rect x="290" y="23" clip-path="url(#clipPath9)" fill="url(#linearGradient2)" width="257" height="41" stroke="none"/>
            <text xml:space="preserve" x="397" y="39" clip-path="url(#clipPath10)" stroke="none">Gateway</text>
            <text xml:space="preserve" x="296" y="57" clip-path="url(#clipPath11)" stroke="none"> + control(  in group: Integer,   in mode: String)</text>
            <line clip-path="url(#clipPath12)" fill="none" x1="290" x2="547" y1="42" y2="42"/>
            <rect x="290" y="23" clip-path="url(#clipPath13)" fill="none" width="256" rx="0" ry="0" height="40"/>
            <rect x="110" y="123" clip-path="url(#clipPath14)" fill="url(#linearGradient3)" width="108" height="41" stroke="none"/>
            <text xml:space="preserve" x="151" y="139" clip-path="url(#clipPath15)" stroke="none">Light</text>
            <text xml:space="preserve" x="116" y="157" clip-path="url(#clipPath16)" stroke="none"> + name: String [1]</text>
            <line clip-path="url(#clipPath17)" fill="none" x1="110" x2="218" y1="142" y2="142"/>
            <rect x="110" y="123" clip-path="url(#clipPath18)" fill="none" width="107" rx="0" ry="0" height="40"/>
            <rect x="10" y="203" clip-path="url(#clipPath19)" fill="url(#linearGradient4)" width="111" height="41" stroke="none"/>
            <text xml:space="preserve" x="54" y="219" clip-path="url(#clipPath20)" stroke="none">Bulb</text>
            <text xml:space="preserve" x="16" y="237" clip-path="url(#clipPath21)" stroke="none"> + color: Integer [1]</text>
            <line clip-path="url(#clipPath22)" fill="none" x1="10" x2="121" y1="222" y2="222"/>
            <rect x="10" y="203" clip-path="url(#clipPath23)" fill="none" width="110" rx="0" ry="0" height="40"/>
            <rect x="190" y="203" clip-path="url(#clipPath24)" fill="url(#linearGradient5)" width="139" height="41" stroke="none"/>
            <text xml:space="preserve" x="248" y="219" clip-path="url(#clipPath25)" stroke="none">Spot</text>
            <text xml:space="preserve" x="196" y="237" clip-path="url(#clipPath26)" stroke="none"> + brightness: Integer [1]</text>
            <line clip-path="url(#clipPath27)" fill="none" x1="190" x2="329" y1="222" y2="222"/>
            <rect x="190" y="203" clip-path="url(#clipPath28)" fill="none" width="138" rx="0" ry="0" height="40"/>
            <rect x="330" y="123" clip-path="url(#clipPath29)" fill="url(#linearGradient6)" width="100" height="41" stroke="none"/>
            <text xml:space="preserve" x="364" y="149" clip-path="url(#clipPath30)" stroke="none">Group</text>
            <rect x="330" y="123" clip-path="url(#clipPath31)" fill="none" width="99" rx="0" ry="0" height="40"/>
            <line clip-path="url(#clipPath32)" fill="none" text-rendering="optimizeLegibility" x1="50" x2="50" y1="203" y2="183"/>
            <line clip-path="url(#clipPath32)" fill="none" text-rendering="optimizeLegibility" x1="50" x2="170" y1="183" y2="183"/>
            <line clip-path="url(#clipPath32)" fill="none" text-rendering="optimizeLegibility" x1="170" x2="170" y1="183" y2="164"/>
            <polygon fill="white" text-rendering="optimizeLegibility" clip-path="url(#clipPath33)" points=" 170 164 178 174 162 174" stroke="none"/>
            <polygon text-rendering="optimizeLegibility" fill="none" clip-path="url(#clipPath33)" points=" 170 164 178 174 162 174"/>
            <line clip-path="url(#clipPath32)" fill="none" text-rendering="optimizeLegibility" x1="270" x2="270" y1="203" y2="183"/>
            <line clip-path="url(#clipPath32)" fill="none" text-rendering="optimizeLegibility" x1="270" x2="170" y1="183" y2="183"/>
            <line clip-path="url(#clipPath32)" fill="none" text-rendering="optimizeLegibility" x1="170" x2="170" y1="183" y2="164"/>
            <polygon fill="white" text-rendering="optimizeLegibility" clip-path="url(#clipPath33)" points=" 170 164 178 174 162 174" stroke="none"/>
            <polygon text-rendering="optimizeLegibility" fill="none" clip-path="url(#clipPath33)" points=" 170 164 178 174 162 174"/>
            <line clip-path="url(#clipPath32)" fill="none" text-rendering="optimizeLegibility" x1="330" x2="218" y1="143" y2="143"/>
            <text x="275" y="161" clip-path="url(#clipPath34)" text-rendering="optimizeLegibility" stroke="none" xml:space="preserve"> + group</text>
            <text x="230" y="136" clip-path="url(#clipPath35)" text-rendering="optimizeLegibility" stroke="none" xml:space="preserve"> + lights</text>
            <text x="310" y="136" clip-path="url(#clipPath36)" text-rendering="optimizeLegibility" stroke="none" xml:space="preserve"> 1</text>
            <text x="230" y="166" clip-path="url(#clipPath37)" text-rendering="optimizeLegibility" stroke="none" xml:space="preserve"> *</text>
            <polygon text-rendering="optimizeLegibility" clip-path="url(#clipPath38)" points=" 330 143 322 147 314 143 322 139" stroke="none"/>
            <polygon text-rendering="optimizeLegibility" fill="none" clip-path="url(#clipPath38)" points=" 330 143 322 147 314 143 322 139"/>
            <polygon text-rendering="optimizeLegibility" clip-path="url(#clipPath39)" points=" 218 142 220 140 222 140 224 142 224 143 236 137 224 143 236 149 224 143 224 144 222 146 220 146 218 144" stroke="none"/>
            <polygon text-rendering="optimizeLegibility" fill="none" clip-path="url(#clipPath39)" points=" 218 142 220 140 222 140 224 142 224 143 236 137 224 143 236 149 224 143 224 144 222 146 220 146 218 144"/>
            <line clip-path="url(#clipPath32)" fill="none" text-rendering="optimizeLegibility" x1="167" x2="290" y1="43" y2="43"/>
            <text x="175" y="36" clip-path="url(#clipPath40)" text-rendering="optimizeLegibility" stroke="none" xml:space="preserve"> + remotes</text>
            <text x="210" y="56" clip-path="url(#clipPath41)" text-rendering="optimizeLegibility" stroke="none" xml:space="preserve"> + gateway</text>
            <text x="175" y="61" clip-path="url(#clipPath42)" text-rendering="optimizeLegibility" stroke="none" xml:space="preserve"> *</text>
            <text x="250" y="36" clip-path="url(#clipPath43)" text-rendering="optimizeLegibility" stroke="none" xml:space="preserve"> 0..1</text>
            <polygon text-rendering="optimizeLegibility" clip-path="url(#clipPath44)" points=" 290 44 288 46 286 46 284 44 284 43 272 49 284 43 272 37 284 43 284 42 286 40 288 40 290 42" stroke="none"/>
            <polygon text-rendering="optimizeLegibility" fill="none" clip-path="url(#clipPath44)" points=" 290 44 288 46 286 46 284 44 284 43 272 49 284 43 272 37 284 43 284 42 286 40 288 40 290 42"/>
            <line clip-path="url(#clipPath32)" fill="none" text-rendering="optimizeLegibility" x1="520" x2="520" y1="64" y2="143"/>
            <line clip-path="url(#clipPath32)" fill="none" text-rendering="optimizeLegibility" x1="520" x2="430" y1="143" y2="143"/>
            <text x="455" y="81" clip-path="url(#clipPath45)" text-rendering="optimizeLegibility" stroke="none" xml:space="preserve"> + gateway</text>
            <text x="445" y="136" clip-path="url(#clipPath46)" text-rendering="optimizeLegibility" stroke="none" xml:space="preserve"> + group</text>
            <text x="525" y="81" clip-path="url(#clipPath47)" text-rendering="optimizeLegibility" stroke="none" xml:space="preserve"> 1</text>
            <text x="450" y="161" clip-path="url(#clipPath48)" text-rendering="optimizeLegibility" stroke="none" xml:space="preserve"> 1..10</text>
            <polygon text-rendering="optimizeLegibility" clip-path="url(#clipPath49)" points=" 430 142 432 140 434 140 436 142 436 143 448 137 436 143 448 149 436 143 436 144 434 146 432 146 430 144" stroke="none"/>
            <polygon text-rendering="optimizeLegibility" fill="none" clip-path="url(#clipPath49)" points=" 430 142 432 140 434 140 436 142 436 143 448 137 436 143 448 149 436 143 436 144 434 146 432 146 430 144"/>
        </g>
    </g>
</svg>
