<?xml version="1.0" encoding="UTF-8"?><svg xmlns="http://www.w3.org/2000/svg" xmlns:xlink="http://www.w3.org/1999/xlink" stroke-dasharray="none" shape-rendering="auto" font-family="'Dialog'" width="619" text-rendering="auto" fill-opacity="1" contentScriptType="text/ecmascript" color-interpolation="auto" color-rendering="auto" preserveAspectRatio="xMidYMid meet" font-size="12" viewBox="0 0 619 420" fill="black" stroke="black" image-rendering="auto" stroke-miterlimit="10" zoomAndPan="magnify" version="1.0" stroke-linecap="square" stroke-linejoin="miter" contentStyleType="text/css" font-style="normal" height="420" stroke-width="1" stroke-dashoffset="0" font-weight="normal" stroke-opacity="1">
    <!--Generated by the Batik Graphics2D SVG Generator-->
    <defs id="genericDefs"/>
    <g>
        <defs id="defs1">
            <linearGradient x1="10" x2="10" y1="10" gradientUnits="userSpaceOnUse" y2="119" xlink:type="simple" xlink:actuate="onLoad" id="linearGradient1" xlink:show="other" spreadMethod="pad">
                <stop stop-opacity="1" stop-color="white" offset="0%"/>
                <stop stop-opacity="1" stop-color="white" offset="100%"/>
            </linearGradient>
            <linearGradient x1="370" x2="370" y1="10" gradientUnits="userSpaceOnUse" y2="110" xlink:type="simple" xlink:actuate="onLoad" id="linearGradient2" xlink:show="other" spreadMethod="pad">
                <stop stop-opacity="1" stop-color="white" offset="0%"/>
                <stop stop-opacity="1" stop-color="white" offset="100%"/>
            </linearGradient>
            <linearGradient x1="110" x2="110" y1="150" gradientUnits="userSpaceOnUse" y2="250" xlink:type="simple" xlink:actuate="onLoad" id="linearGradient3" xlink:show="other" spreadMethod="pad">
                <stop stop-opacity="1" stop-color="white" offset="0%"/>
                <stop stop-opacity="1" stop-color="white" offset="100%"/>
            </linearGradient>
            <linearGradient x1="10" x2="10" y1="310" gradientUnits="userSpaceOnUse" y2="410" xlink:type="simple" xlink:actuate="onLoad" id="linearGradient4" xlink:show="other" spreadMethod="pad">
                <stop stop-opacity="1" stop-color="white" offset="0%"/>
                <stop stop-opacity="1" stop-color="white" offset="100%"/>
            </linearGradient>
            <linearGradient x1="190" x2="190" y1="310" gradientUnits="userSpaceOnUse" y2="410" xlink:type="simple" xlink:actuate="onLoad" id="linearGradient5" xlink:show="other" spreadMethod="pad">
                <stop stop-opacity="1" stop-color="white" offset="0%"/>
                <stop stop-opacity="1" stop-color="white" offset="100%"/>
            </linearGradient>
            <clipPath clipPathUnits="userSpaceOnUse" id="clipPath1">
                <path d="M10 10 L10 118 L248 118 L248 10 Z"/>
            </clipPath>
            <clipPath clipPathUnits="userSpaceOnUse" id="clipPath2">
                <path d="M108 12 L152 12 L152 29 L108 29 L108 12 Z"/>
            </clipPath>
            <clipPath clipPathUnits="userSpaceOnUse" id="clipPath3">
                <path d="M10 28 L250 28 L250 52 L10 52 L10 28 Z"/>
            </clipPath>
            <clipPath clipPathUnits="userSpaceOnUse" id="clipPath4">
                <path d="M15 53 L246 53 L246 70 L15 70 L15 53 Z"/>
            </clipPath>
            <clipPath clipPathUnits="userSpaceOnUse" id="clipPath5">
                <path d="M15 68 L154 68 L154 85 L15 85 L15 68 Z"/>
            </clipPath>
            <clipPath clipPathUnits="userSpaceOnUse" id="clipPath6">
                <path d="M10 51 L250 51 L250 96 L10 96 L10 51 Z"/>
            </clipPath>
            <clipPath clipPathUnits="userSpaceOnUse" id="clipPath7">
                <path d="M10 95 L250 95 L250 119 L10 119 L10 95 Z"/>
            </clipPath>
            <clipPath clipPathUnits="userSpaceOnUse" id="clipPath8">
                <path d="M9 9 L250 9 L250 120 L9 120 L9 9 Z"/>
            </clipPath>
            <clipPath clipPathUnits="userSpaceOnUse" id="clipPath9">
                <path d="M370 10 L370 109 L608 109 L608 10 Z"/>
            </clipPath>
            <clipPath clipPathUnits="userSpaceOnUse" id="clipPath10">
                <path d="M467 12 L514 12 L514 29 L467 29 L467 12 Z"/>
            </clipPath>
            <clipPath clipPathUnits="userSpaceOnUse" id="clipPath11">
                <path d="M370 28 L610 28 L610 54 L370 54 L370 28 Z"/>
            </clipPath>
            <clipPath clipPathUnits="userSpaceOnUse" id="clipPath12">
                <path d="M375 55 L606 55 L606 72 L375 72 L375 55 Z"/>
            </clipPath>
            <clipPath clipPathUnits="userSpaceOnUse" id="clipPath13">
                <path d="M370 53 L610 53 L610 85 L370 85 L370 53 Z"/>
            </clipPath>
            <clipPath clipPathUnits="userSpaceOnUse" id="clipPath14">
                <path d="M370 84 L610 84 L610 110 L370 110 L370 84 Z"/>
            </clipPath>
            <clipPath clipPathUnits="userSpaceOnUse" id="clipPath15">
                <path d="M369 9 L610 9 L610 111 L369 111 L369 9 Z"/>
            </clipPath>
            <clipPath clipPathUnits="userSpaceOnUse" id="clipPath16">
                <path d="M110 150 L110 249 L217 249 L217 150 Z"/>
            </clipPath>
            <clipPath clipPathUnits="userSpaceOnUse" id="clipPath17">
                <path d="M150 152 L180 152 L180 169 L150 169 L150 152 Z"/>
            </clipPath>
            <clipPath clipPathUnits="userSpaceOnUse" id="clipPath18">
                <path d="M115 170 L215 170 L215 187 L115 187 L115 170 Z"/>
            </clipPath>
            <clipPath clipPathUnits="userSpaceOnUse" id="clipPath19">
                <path d="M110 168 L219 168 L219 200 L110 200 L110 168 Z"/>
            </clipPath>
            <clipPath clipPathUnits="userSpaceOnUse" id="clipPath20">
                <path d="M110 199 L219 199 L219 225 L110 225 L110 199 Z"/>
            </clipPath>
            <clipPath clipPathUnits="userSpaceOnUse" id="clipPath21">
                <path d="M110 224 L219 224 L219 250 L110 250 L110 224 Z"/>
            </clipPath>
            <clipPath clipPathUnits="userSpaceOnUse" id="clipPath22">
                <path d="M109 149 L219 149 L219 251 L109 251 L109 149 Z"/>
            </clipPath>
            <clipPath clipPathUnits="userSpaceOnUse" id="clipPath23">
                <path d="M10 310 L10 409 L120 409 L120 310 Z"/>
            </clipPath>
            <clipPath clipPathUnits="userSpaceOnUse" id="clipPath24">
                <path d="M53 312 L80 312 L80 329 L53 329 L53 312 Z"/>
            </clipPath>
            <clipPath clipPathUnits="userSpaceOnUse" id="clipPath25">
                <path d="M15 330 L118 330 L118 347 L15 347 L15 330 Z"/>
            </clipPath>
            <clipPath clipPathUnits="userSpaceOnUse" id="clipPath26">
                <path d="M10 328 L122 328 L122 360 L10 360 L10 328 Z"/>
            </clipPath>
            <clipPath clipPathUnits="userSpaceOnUse" id="clipPath27">
                <path d="M10 359 L122 359 L122 385 L10 385 L10 359 Z"/>
            </clipPath>
            <clipPath clipPathUnits="userSpaceOnUse" id="clipPath28">
                <path d="M10 384 L122 384 L122 410 L10 410 L10 384 Z"/>
            </clipPath>
            <clipPath clipPathUnits="userSpaceOnUse" id="clipPath29">
                <path d="M9 309 L122 309 L122 411 L9 411 L9 309 Z"/>
            </clipPath>
            <clipPath clipPathUnits="userSpaceOnUse" id="clipPath30">
                <path d="M190 310 L190 409 L328 409 L328 310 Z"/>
            </clipPath>
            <clipPath clipPathUnits="userSpaceOnUse" id="clipPath31">
                <path d="M247 312 L274 312 L274 329 L247 329 L247 312 Z"/>
            </clipPath>
            <clipPath clipPathUnits="userSpaceOnUse" id="clipPath32">
                <path d="M195 330 L326 330 L326 347 L195 347 L195 330 Z"/>
            </clipPath>
            <clipPath clipPathUnits="userSpaceOnUse" id="clipPath33">
                <path d="M190 328 L330 328 L330 360 L190 360 L190 328 Z"/>
            </clipPath>
            <clipPath clipPathUnits="userSpaceOnUse" id="clipPath34">
                <path d="M190 359 L330 359 L330 385 L190 385 L190 359 Z"/>
            </clipPath>
            <clipPath clipPathUnits="userSpaceOnUse" id="clipPath35">
                <path d="M190 384 L330 384 L330 410 L190 410 L190 384 Z"/>
            </clipPath>
            <clipPath clipPathUnits="userSpaceOnUse" id="clipPath36">
                <path d="M189 309 L330 309 L330 411 L189 411 L189 309 Z"/>
            </clipPath>
            <clipPath clipPathUnits="userSpaceOnUse" id="clipPath37">
                <path d="M-1 -1 L620 -1 L620 421 L-1 421 L-1 -1 Z"/>
            </clipPath>
            <clipPath clipPathUnits="userSpaceOnUse" id="clipPath38">
                <path d="M161 249 L180 249 L180 262 L161 262 L161 249 Z"/>
            </clipPath>
            <clipPath clipPathUnits="userSpaceOnUse" id="clipPath39">
                <path d="M509 129 L569 129 L569 146 L509 146 L509 129 Z"/>
            </clipPath>
            <clipPath clipPathUnits="userSpaceOnUse" id="clipPath40">
                <path d="M249 169 L295 169 L295 186 L249 186 L249 169 Z"/>
            </clipPath>
            <clipPath clipPathUnits="userSpaceOnUse" id="clipPath41">
                <path d="M469 129 L481 129 L481 146 L469 146 L469 129 Z"/>
            </clipPath>
            <clipPath clipPathUnits="userSpaceOnUse" id="clipPath42">
                <path d="M249 189 L260 189 L260 206 L249 206 L249 189 Z"/>
            </clipPath>
            <clipPath clipPathUnits="userSpaceOnUse" id="clipPath43">
                <path d="M485 109 L496 109 L496 128 L485 128 L485 109 Z"/>
            </clipPath>
            <clipPath clipPathUnits="userSpaceOnUse" id="clipPath44">
                <path d="M217 183 L238 183 L238 198 L217 198 L217 183 Z"/>
            </clipPath>
            <clipPath clipPathUnits="userSpaceOnUse" id="clipPath45">
                <path d="M246 29 L306 29 L306 46 L246 46 L246 29 Z"/>
            </clipPath>
            <clipPath clipPathUnits="userSpaceOnUse" id="clipPath46">
                <path d="M289 49 L349 49 L349 66 L289 66 L289 49 Z"/>
            </clipPath>
            <clipPath clipPathUnits="userSpaceOnUse" id="clipPath47">
                <path d="M250 49 L261 49 L261 66 L250 66 L250 49 Z"/>
            </clipPath>
            <clipPath clipPathUnits="userSpaceOnUse" id="clipPath48">
                <path d="M329 29 L353 29 L353 46 L329 46 L329 29 Z"/>
            </clipPath>
            <clipPath clipPathUnits="userSpaceOnUse" id="clipPath49">
                <path d="M351 43 L372 43 L372 58 L351 58 L351 43 Z"/>
            </clipPath>
        </defs>
        <g fill="url(#linearGradient1)" font-family="'Segoe UI'" stroke-linejoin="round" stroke="url(#linearGradient1)" stroke-width="0" stroke-miterlimit="0">
            <rect x="10" y="10" clip-path="url(#clipPath1)" width="239" height="109" stroke="none"/>
            <text x="109" y="26" clip-path="url(#clipPath2)" fill="black" stroke="none" xml:space="preserve">Remote</text>
        </g>
        <g stroke-width="1.1" font-family="'Segoe UI'" stroke-linecap="butt">
            <line clip-path="url(#clipPath3)" fill="none" x1="10" x2="249" y1="29" y2="29"/>
            <text xml:space="preserve" x="16" y="67" clip-path="url(#clipPath4)" stroke="none"> + turnOn(  in light: Light,   in mode: String)</text>
            <text xml:space="preserve" x="16" y="82" clip-path="url(#clipPath5)" stroke="none"> + turnOff(  in light: Light)</text>
            <line clip-path="url(#clipPath6)" fill="none" x1="10" x2="249" y1="52" y2="52"/>
            <line clip-path="url(#clipPath7)" fill="none" x1="10" x2="249" y1="96" y2="96"/>
            <rect x="10" y="10" clip-path="url(#clipPath8)" fill="none" width="238" rx="0" ry="0" height="108"/>
            <rect x="370" y="10" clip-path="url(#clipPath9)" fill="url(#linearGradient2)" width="239" height="100" stroke="none"/>
            <text xml:space="preserve" x="468" y="26" clip-path="url(#clipPath10)" stroke="none">Gateway</text>
            <line clip-path="url(#clipPath11)" fill="none" x1="370" x2="609" y1="29" y2="29"/>
            <text xml:space="preserve" x="376" y="69" clip-path="url(#clipPath12)" stroke="none"> + control(  in light: Light,   in mode: String)</text>
            <line clip-path="url(#clipPath13)" fill="none" x1="370" x2="609" y1="54" y2="54"/>
            <line clip-path="url(#clipPath14)" fill="none" x1="370" x2="609" y1="85" y2="85"/>
            <rect x="370" y="10" clip-path="url(#clipPath15)" fill="none" width="238" rx="0" ry="0" height="99"/>
            <rect x="110" y="150" clip-path="url(#clipPath16)" fill="url(#linearGradient3)" width="108" height="100" stroke="none"/>
            <text xml:space="preserve" x="151" y="166" clip-path="url(#clipPath17)" stroke="none">Light</text>
            <text xml:space="preserve" x="116" y="184" clip-path="url(#clipPath18)" stroke="none"> + name: String [1]</text>
            <line clip-path="url(#clipPath19)" fill="none" x1="110" x2="218" y1="169" y2="169"/>
            <line clip-path="url(#clipPath20)" fill="none" x1="110" x2="218" y1="200" y2="200"/>
            <line clip-path="url(#clipPath21)" fill="none" x1="110" x2="218" y1="225" y2="225"/>
            <rect x="110" y="150" clip-path="url(#clipPath22)" fill="none" width="107" rx="0" ry="0" height="99"/>
            <rect x="10" y="310" clip-path="url(#clipPath23)" fill="url(#linearGradient4)" width="111" height="100" stroke="none"/>
            <text xml:space="preserve" x="54" y="326" clip-path="url(#clipPath24)" stroke="none">Bulb</text>
            <text xml:space="preserve" x="16" y="344" clip-path="url(#clipPath25)" stroke="none"> + color: Integer [1]</text>
            <line clip-path="url(#clipPath26)" fill="none" x1="10" x2="121" y1="329" y2="329"/>
            <line clip-path="url(#clipPath27)" fill="none" x1="10" x2="121" y1="360" y2="360"/>
            <line clip-path="url(#clipPath28)" fill="none" x1="10" x2="121" y1="385" y2="385"/>
            <rect x="10" y="310" clip-path="url(#clipPath29)" fill="none" width="110" rx="0" ry="0" height="99"/>
            <rect x="190" y="310" clip-path="url(#clipPath30)" fill="url(#linearGradient5)" width="139" height="100" stroke="none"/>
            <text xml:space="preserve" x="248" y="326" clip-path="url(#clipPath31)" stroke="none">Spot</text>
            <text xml:space="preserve" x="196" y="344" clip-path="url(#clipPath32)" stroke="none"> + brightness: Integer [1]</text>
            <line clip-path="url(#clipPath33)" fill="none" x1="190" x2="329" y1="329" y2="329"/>
            <line clip-path="url(#clipPath34)" fill="none" x1="190" x2="329" y1="360" y2="360"/>
            <line clip-path="url(#clipPath35)" fill="none" x1="190" x2="329" y1="385" y2="385"/>
            <rect x="190" y="310" clip-path="url(#clipPath36)" fill="none" width="138" rx="0" ry="0" height="99"/>
            <line clip-path="url(#clipPath37)" fill="none" text-rendering="optimizeLegibility" x1="50" x2="50" y1="310" y2="290"/>
            <line clip-path="url(#clipPath37)" fill="none" text-rendering="optimizeLegibility" x1="50" x2="170" y1="290" y2="290"/>
            <line clip-path="url(#clipPath37)" fill="none" text-rendering="optimizeLegibility" x1="170" x2="170" y1="290" y2="250"/>
            <polygon fill="white" text-rendering="optimizeLegibility" clip-path="url(#clipPath38)" points=" 170 250 178 260 162 260" stroke="none"/>
            <polygon text-rendering="optimizeLegibility" fill="none" clip-path="url(#clipPath38)" points=" 170 250 178 260 162 260"/>
            <line clip-path="url(#clipPath37)" fill="none" text-rendering="optimizeLegibility" x1="273" x2="273" y1="310" y2="290"/>
            <line clip-path="url(#clipPath37)" fill="none" text-rendering="optimizeLegibility" x1="273" x2="170" y1="290" y2="290"/>
            <line clip-path="url(#clipPath37)" fill="none" text-rendering="optimizeLegibility" x1="170" x2="170" y1="290" y2="250"/>
            <polygon fill="white" text-rendering="optimizeLegibility" clip-path="url(#clipPath38)" points=" 170 250 178 260 162 260" stroke="none"/>
            <polygon text-rendering="optimizeLegibility" fill="none" clip-path="url(#clipPath38)" points=" 170 250 178 260 162 260"/>
            <line clip-path="url(#clipPath37)" fill="none" text-rendering="optimizeLegibility" x1="490" x2="490" y1="110" y2="190"/>
            <line clip-path="url(#clipPath37)" fill="none" text-rendering="optimizeLegibility" x1="490" x2="218" y1="190" y2="190"/>
            <text x="510" y="143" clip-path="url(#clipPath39)" text-rendering="optimizeLegibility" stroke="none" xml:space="preserve"> + gateway</text>
            <text x="250" y="183" clip-path="url(#clipPath40)" text-rendering="optimizeLegibility" stroke="none" xml:space="preserve"> + lights</text>
            <text x="470" y="143" clip-path="url(#clipPath41)" text-rendering="optimizeLegibility" stroke="none" xml:space="preserve"> 1</text>
            <text x="250" y="203" clip-path="url(#clipPath42)" text-rendering="optimizeLegibility" stroke="none" xml:space="preserve"> *</text>
            <polygon text-rendering="optimizeLegibility" clip-path="url(#clipPath43)" points=" 490 110 494 118 490 126 486 118" stroke="none"/>
            <polygon text-rendering="optimizeLegibility" fill="none" clip-path="url(#clipPath43)" points=" 490 110 494 118 490 126 486 118"/>
            <polygon text-rendering="optimizeLegibility" clip-path="url(#clipPath44)" points=" 218 189 220 187 222 187 224 189 224 190 236 184 224 190 236 196 224 190 224 191 222 193 220 193 218 191" stroke="none"/>
            <polygon text-rendering="optimizeLegibility" fill="none" clip-path="url(#clipPath44)" points=" 218 189 220 187 222 187 224 189 224 190 236 184 224 190 236 196 224 190 224 191 222 193 220 193 218 191"/>
            <line clip-path="url(#clipPath37)" fill="none" text-rendering="optimizeLegibility" x1="249" x2="370" y1="50" y2="50"/>
            <text x="247" y="43" clip-path="url(#clipPath45)" text-rendering="optimizeLegibility" stroke="none" xml:space="preserve"> + remotes</text>
            <text x="290" y="63" clip-path="url(#clipPath46)" text-rendering="optimizeLegibility" stroke="none" xml:space="preserve"> + gateway</text>
            <text x="251" y="63" clip-path="url(#clipPath47)" text-rendering="optimizeLegibility" stroke="none" xml:space="preserve"> *</text>
            <text x="330" y="43" clip-path="url(#clipPath48)" text-rendering="optimizeLegibility" stroke="none" xml:space="preserve"> 0..1</text>
            <polygon text-rendering="optimizeLegibility" clip-path="url(#clipPath49)" points=" 370 51 368 53 366 53 364 51 364 50 352 56 364 50 352 44 364 50 364 49 366 47 368 47 370 49" stroke="none"/>
            <polygon text-rendering="optimizeLegibility" fill="none" clip-path="url(#clipPath49)" points=" 370 51 368 53 366 53 364 51 364 50 352 56 364 50 352 44 364 50 364 49 366 47 368 47 370 49"/>
        </g>
    </g>
</svg>
