<?xml version="1.0" encoding="UTF-8"?><svg xmlns="http://www.w3.org/2000/svg" xmlns:xlink="http://www.w3.org/1999/xlink" stroke-dasharray="none" shape-rendering="auto" font-family="'Dialog'" width="619" text-rendering="auto" fill-opacity="1" contentScriptType="text/ecmascript" color-interpolation="auto" color-rendering="auto" preserveAspectRatio="xMidYMid meet" font-size="12" viewBox="0 0 619 234" fill="black" stroke="black" image-rendering="auto" stroke-miterlimit="10" zoomAndPan="magnify" version="1.0" stroke-linecap="square" stroke-linejoin="miter" contentStyleType="text/css" font-style="normal" height="234" stroke-width="1" stroke-dashoffset="0" font-weight="normal" stroke-opacity="1">
    <!--Generated by the Batik Graphics2D SVG Generator-->
    <defs id="genericDefs"/>
    <g>
        <defs id="defs1">
            <linearGradient x1="10" x2="10" y1="23" gradientUnits="userSpaceOnUse" y2="84" xlink:type="simple" xlink:actuate="onLoad" id="linearGradient1" xlink:show="other" spreadMethod="pad">
                <stop stop-opacity="1" stop-color="white" offset="0%"/>
                <stop stop-opacity="1" stop-color="white" offset="100%"/>
            </linearGradient>
            <linearGradient x1="370" x2="370" y1="23" gradientUnits="userSpaceOnUse" y2="64" xlink:type="simple" xlink:actuate="onLoad" id="linearGradient2" xlink:show="other" spreadMethod="pad">
                <stop stop-opacity="1" stop-color="white" offset="0%"/>
                <stop stop-opacity="1" stop-color="white" offset="100%"/>
            </linearGradient>
            <linearGradient x1="140" x2="140" y1="108" gradientUnits="userSpaceOnUse" y2="149" xlink:type="simple" xlink:actuate="onLoad" id="linearGradient3" xlink:show="other" spreadMethod="pad">
                <stop stop-opacity="1" stop-color="white" offset="0%"/>
                <stop stop-opacity="1" stop-color="white" offset="100%"/>
            </linearGradient>
            <linearGradient x1="20" x2="20" y1="183" gradientUnits="userSpaceOnUse" y2="224" xlink:type="simple" xlink:actuate="onLoad" id="linearGradient4" xlink:show="other" spreadMethod="pad">
                <stop stop-opacity="1" stop-color="white" offset="0%"/>
                <stop stop-opacity="1" stop-color="white" offset="100%"/>
            </linearGradient>
            <linearGradient x1="220" x2="220" y1="183" gradientUnits="userSpaceOnUse" y2="224" xlink:type="simple" xlink:actuate="onLoad" id="linearGradient5" xlink:show="other" spreadMethod="pad">
                <stop stop-opacity="1" stop-color="white" offset="0%"/>
                <stop stop-opacity="1" stop-color="white" offset="100%"/>
            </linearGradient>
            <clipPath clipPathUnits="userSpaceOnUse" id="clipPath1">
                <path d="M10 23 L10 83 L248 83 L248 23 Z"/>
            </clipPath>
            <clipPath clipPathUnits="userSpaceOnUse" id="clipPath2">
                <path d="M108 25 L152 25 L152 42 L108 42 L108 25 Z"/>
            </clipPath>
            <clipPath clipPathUnits="userSpaceOnUse" id="clipPath3">
                <path d="M15 43 L246 43 L246 60 L15 60 L15 43 Z"/>
            </clipPath>
            <clipPath clipPathUnits="userSpaceOnUse" id="clipPath4">
                <path d="M15 58 L154 58 L154 75 L15 75 L15 58 Z"/>
            </clipPath>
            <clipPath clipPathUnits="userSpaceOnUse" id="clipPath5">
                <path d="M10 41 L250 41 L250 85 L10 85 L10 41 Z"/>
            </clipPath>
            <clipPath clipPathUnits="userSpaceOnUse" id="clipPath6">
                <path d="M9 22 L250 22 L250 85 L9 85 L9 22 Z"/>
            </clipPath>
            <clipPath clipPathUnits="userSpaceOnUse" id="clipPath7">
                <path d="M370 23 L370 63 L608 63 L608 23 Z"/>
            </clipPath>
            <clipPath clipPathUnits="userSpaceOnUse" id="clipPath8">
                <path d="M467 25 L514 25 L514 42 L467 42 L467 25 Z"/>
            </clipPath>
            <clipPath clipPathUnits="userSpaceOnUse" id="clipPath9">
                <path d="M375 43 L606 43 L606 60 L375 60 L375 43 Z"/>
            </clipPath>
            <clipPath clipPathUnits="userSpaceOnUse" id="clipPath10">
                <path d="M370 41 L610 41 L610 65 L370 65 L370 41 Z"/>
            </clipPath>
            <clipPath clipPathUnits="userSpaceOnUse" id="clipPath11">
                <path d="M369 22 L610 22 L610 65 L369 65 L369 22 Z"/>
            </clipPath>
            <clipPath clipPathUnits="userSpaceOnUse" id="clipPath12">
                <path d="M140 108 L140 148 L247 148 L247 108 Z"/>
            </clipPath>
            <clipPath clipPathUnits="userSpaceOnUse" id="clipPath13">
                <path d="M180 110 L210 110 L210 127 L180 127 L180 110 Z"/>
            </clipPath>
            <clipPath clipPathUnits="userSpaceOnUse" id="clipPath14">
                <path d="M145 128 L245 128 L245 145 L145 145 L145 128 Z"/>
            </clipPath>
            <clipPath clipPathUnits="userSpaceOnUse" id="clipPath15">
                <path d="M140 126 L249 126 L249 150 L140 150 L140 126 Z"/>
            </clipPath>
            <clipPath clipPathUnits="userSpaceOnUse" id="clipPath16">
                <path d="M139 107 L249 107 L249 150 L139 150 L139 107 Z"/>
            </clipPath>
            <clipPath clipPathUnits="userSpaceOnUse" id="clipPath17">
                <path d="M20 183 L20 223 L130 223 L130 183 Z"/>
            </clipPath>
            <clipPath clipPathUnits="userSpaceOnUse" id="clipPath18">
                <path d="M63 185 L90 185 L90 202 L63 202 L63 185 Z"/>
            </clipPath>
            <clipPath clipPathUnits="userSpaceOnUse" id="clipPath19">
                <path d="M25 203 L128 203 L128 220 L25 220 L25 203 Z"/>
            </clipPath>
            <clipPath clipPathUnits="userSpaceOnUse" id="clipPath20">
                <path d="M20 201 L132 201 L132 225 L20 225 L20 201 Z"/>
            </clipPath>
            <clipPath clipPathUnits="userSpaceOnUse" id="clipPath21">
                <path d="M19 182 L132 182 L132 225 L19 225 L19 182 Z"/>
            </clipPath>
            <clipPath clipPathUnits="userSpaceOnUse" id="clipPath22">
                <path d="M220 183 L220 223 L358 223 L358 183 Z"/>
            </clipPath>
            <clipPath clipPathUnits="userSpaceOnUse" id="clipPath23">
                <path d="M277 185 L304 185 L304 202 L277 202 L277 185 Z"/>
            </clipPath>
            <clipPath clipPathUnits="userSpaceOnUse" id="clipPath24">
                <path d="M225 203 L356 203 L356 220 L225 220 L225 203 Z"/>
            </clipPath>
            <clipPath clipPathUnits="userSpaceOnUse" id="clipPath25">
                <path d="M220 201 L360 201 L360 225 L220 225 L220 201 Z"/>
            </clipPath>
            <clipPath clipPathUnits="userSpaceOnUse" id="clipPath26">
                <path d="M219 182 L360 182 L360 225 L219 225 L219 182 Z"/>
            </clipPath>
            <clipPath clipPathUnits="userSpaceOnUse" id="clipPath27">
                <path d="M-1 -1 L620 -1 L620 235 L-1 235 L-1 -1 Z"/>
            </clipPath>
            <clipPath clipPathUnits="userSpaceOnUse" id="clipPath28">
                <path d="M191 148 L210 148 L210 161 L191 161 L191 148 Z"/>
            </clipPath>
            <clipPath clipPathUnits="userSpaceOnUse" id="clipPath29">
                <path d="M499 72 L559 72 L559 89 L499 89 L499 72 Z"/>
            </clipPath>
            <clipPath clipPathUnits="userSpaceOnUse" id="clipPath30">
                <path d="M269 102 L315 102 L315 119 L269 119 L269 102 Z"/>
            </clipPath>
            <clipPath clipPathUnits="userSpaceOnUse" id="clipPath31">
                <path d="M474 77 L486 77 L486 94 L474 94 L474 77 Z"/>
            </clipPath>
            <clipPath clipPathUnits="userSpaceOnUse" id="clipPath32">
                <path d="M269 132 L280 132 L280 149 L269 149 L269 132 Z"/>
            </clipPath>
            <clipPath clipPathUnits="userSpaceOnUse" id="clipPath33">
                <path d="M485 63 L496 63 L496 82 L485 82 L485 63 Z"/>
            </clipPath>
            <clipPath clipPathUnits="userSpaceOnUse" id="clipPath34">
                <path d="M247 121 L268 121 L268 136 L247 136 L247 121 Z"/>
            </clipPath>
            <clipPath clipPathUnits="userSpaceOnUse" id="clipPath35">
                <path d="M254 22 L314 22 L314 39 L254 39 L254 22 Z"/>
            </clipPath>
            <clipPath clipPathUnits="userSpaceOnUse" id="clipPath36">
                <path d="M299 52 L359 52 L359 69 L299 69 L299 52 Z"/>
            </clipPath>
            <clipPath clipPathUnits="userSpaceOnUse" id="clipPath37">
                <path d="M254 47 L265 47 L265 64 L254 64 L254 47 Z"/>
            </clipPath>
            <clipPath clipPathUnits="userSpaceOnUse" id="clipPath38">
                <path d="M329 22 L353 22 L353 39 L329 39 L329 22 Z"/>
            </clipPath>
            <clipPath clipPathUnits="userSpaceOnUse" id="clipPath39">
                <path d="M351 36 L372 36 L372 51 L351 51 L351 36 Z"/>
            </clipPath>
        </defs>
        <g fill="url(#linearGradient1)" font-family="'Segoe UI'" stroke-linejoin="round" stroke="url(#linearGradient1)" stroke-width="0" stroke-miterlimit="0">
            <rect x="10" y="23" clip-path="url(#clipPath1)" width="239" height="61" stroke="none"/>
            <text x="109" y="39" clip-path="url(#clipPath2)" fill="black" stroke="none" xml:space="preserve">Remote</text>
            <text x="16" y="57" clip-path="url(#clipPath3)" fill="black" stroke="none" xml:space="preserve"> + turnOn(  in light: Light,   in mode: String)</text>
            <text x="16" y="72" clip-path="url(#clipPath4)" fill="black" stroke="none" xml:space="preserve"> + turnOff(  in light: Light)</text>
        </g>
        <g stroke-width="1.1" font-family="'Segoe UI'" stroke-linecap="butt">
            <line clip-path="url(#clipPath5)" fill="none" x1="10" x2="249" y1="42" y2="42"/>
            <rect x="10" y="23" clip-path="url(#clipPath6)" fill="none" width="238" rx="0" ry="0" height="60"/>
            <rect x="370" y="23" clip-path="url(#clipPath7)" fill="url(#linearGradient2)" width="239" height="41" stroke="none"/>
            <text xml:space="preserve" x="468" y="39" clip-path="url(#clipPath8)" stroke="none">Gateway</text>
            <text xml:space="preserve" x="376" y="57" clip-path="url(#clipPath9)" stroke="none"> + control(  in light: Light,   in mode: String)</text>
            <line clip-path="url(#clipPath10)" fill="none" x1="370" x2="609" y1="42" y2="42"/>
            <rect x="370" y="23" clip-path="url(#clipPath11)" fill="none" width="238" rx="0" ry="0" height="40"/>
            <rect x="140" y="108" clip-path="url(#clipPath12)" fill="url(#linearGradient3)" width="108" height="41" stroke="none"/>
            <text xml:space="preserve" x="181" y="124" clip-path="url(#clipPath13)" stroke="none">Light</text>
            <text xml:space="preserve" x="146" y="142" clip-path="url(#clipPath14)" stroke="none"> + name: String [1]</text>
            <line clip-path="url(#clipPath15)" fill="none" x1="140" x2="248" y1="127" y2="127"/>
            <rect x="140" y="108" clip-path="url(#clipPath16)" fill="none" width="107" rx="0" ry="0" height="40"/>
            <rect x="20" y="183" clip-path="url(#clipPath17)" fill="url(#linearGradient4)" width="111" height="41" stroke="none"/>
            <text xml:space="preserve" x="64" y="199" clip-path="url(#clipPath18)" stroke="none">Bulb</text>
            <text xml:space="preserve" x="26" y="217" clip-path="url(#clipPath19)" stroke="none"> + color: Integer [1]</text>
            <line clip-path="url(#clipPath20)" fill="none" x1="20" x2="131" y1="202" y2="202"/>
            <rect x="20" y="183" clip-path="url(#clipPath21)" fill="none" width="110" rx="0" ry="0" height="40"/>
            <rect x="220" y="183" clip-path="url(#clipPath22)" fill="url(#linearGradient5)" width="139" height="41" stroke="none"/>
            <text xml:space="preserve" x="278" y="199" clip-path="url(#clipPath23)" stroke="none">Spot</text>
            <text xml:space="preserve" x="226" y="217" clip-path="url(#clipPath24)" stroke="none"> + brightness: Integer [1]</text>
            <line clip-path="url(#clipPath25)" fill="none" x1="220" x2="359" y1="202" y2="202"/>
            <rect x="220" y="183" clip-path="url(#clipPath26)" fill="none" width="138" rx="0" ry="0" height="40"/>
            <line clip-path="url(#clipPath27)" fill="none" text-rendering="optimizeLegibility" x1="75" x2="75" y1="183" y2="168"/>
            <line clip-path="url(#clipPath27)" fill="none" text-rendering="optimizeLegibility" x1="75" x2="200" y1="168" y2="168"/>
            <line clip-path="url(#clipPath27)" fill="none" text-rendering="optimizeLegibility" x1="200" x2="200" y1="168" y2="149"/>
            <polygon fill="white" text-rendering="optimizeLegibility" clip-path="url(#clipPath28)" points=" 200 149 208 159 192 159" stroke="none"/>
            <polygon text-rendering="optimizeLegibility" fill="none" clip-path="url(#clipPath28)" points=" 200 149 208 159 192 159"/>
            <line clip-path="url(#clipPath27)" fill="none" text-rendering="optimizeLegibility" x1="305" x2="305" y1="183" y2="168"/>
            <line clip-path="url(#clipPath27)" fill="none" text-rendering="optimizeLegibility" x1="305" x2="200" y1="168" y2="168"/>
            <line clip-path="url(#clipPath27)" fill="none" text-rendering="optimizeLegibility" x1="200" x2="200" y1="168" y2="149"/>
            <polygon fill="white" text-rendering="optimizeLegibility" clip-path="url(#clipPath28)" points=" 200 149 208 159 192 159" stroke="none"/>
            <polygon text-rendering="optimizeLegibility" fill="none" clip-path="url(#clipPath28)" points=" 200 149 208 159 192 159"/>
            <line clip-path="url(#clipPath27)" fill="none" text-rendering="optimizeLegibility" x1="490" x2="490" y1="64" y2="128"/>
            <line clip-path="url(#clipPath27)" fill="none" text-rendering="optimizeLegibility" x1="490" x2="248" y1="128" y2="128"/>
            <text x="500" y="86" clip-path="url(#clipPath29)" text-rendering="optimizeLegibility" stroke="none" xml:space="preserve"> + gateway</text>
            <text x="270" y="116" clip-path="url(#clipPath30)" text-rendering="optimizeLegibility" stroke="none" xml:space="preserve"> + lights</text>
            <text x="475" y="91" clip-path="url(#clipPath31)" text-rendering="optimizeLegibility" stroke="none" xml:space="preserve"> 1</text>
            <text x="270" y="146" clip-path="url(#clipPath32)" text-rendering="optimizeLegibility" stroke="none" xml:space="preserve"> *</text>
            <polygon text-rendering="optimizeLegibility" clip-path="url(#clipPath33)" points=" 490 64 494 72 490 80 486 72" stroke="none"/>
            <polygon text-rendering="optimizeLegibility" fill="none" clip-path="url(#clipPath33)" points=" 490 64 494 72 490 80 486 72"/>
            <polygon text-rendering="optimizeLegibility" clip-path="url(#clipPath34)" points=" 248 127 250 125 252 125 254 127 254 128 266 122 254 128 266 134 254 128 254 129 252 131 250 131 248 129" stroke="none"/>
            <polygon text-rendering="optimizeLegibility" fill="none" clip-path="url(#clipPath34)" points=" 248 127 250 125 252 125 254 127 254 128 266 122 254 128 266 134 254 128 254 129 252 131 250 131 248 129"/>
            <line clip-path="url(#clipPath27)" fill="none" text-rendering="optimizeLegibility" x1="249" x2="370" y1="43" y2="43"/>
            <text x="255" y="36" clip-path="url(#clipPath35)" text-rendering="optimizeLegibility" stroke="none" xml:space="preserve"> + remotes</text>
            <text x="300" y="66" clip-path="url(#clipPath36)" text-rendering="optimizeLegibility" stroke="none" xml:space="preserve"> + gateway</text>
            <text x="255" y="61" clip-path="url(#clipPath37)" text-rendering="optimizeLegibility" stroke="none" xml:space="preserve"> *</text>
            <text x="330" y="36" clip-path="url(#clipPath38)" text-rendering="optimizeLegibility" stroke="none" xml:space="preserve"> 0..1</text>
            <polygon text-rendering="optimizeLegibility" clip-path="url(#clipPath39)" points=" 370 44 368 46 366 46 364 44 364 43 352 49 364 43 352 37 364 43 364 42 366 40 368 40 370 42" stroke="none"/>
            <polygon text-rendering="optimizeLegibility" fill="none" clip-path="url(#clipPath39)" points=" 370 44 368 46 366 46 364 44 364 43 352 49 364 43 352 37 364 43 364 42 366 40 368 40 370 42"/>
        </g>
    </g>
</svg>
